# xmcd CD database file
#
# Track frame offsets:
#	150
#	21825
#	44925
#	69750
#	91275
#	112050
#	133425
#	157350
#	181500
#	201825
#	226200
#	248325
#	271050
#
# Disc length: 3864 seconds
#
# Revision: 1
# Processed by: cddbd v1.5.1PL2 Copyright (c) Steve Scherf et al.
# Submitted via: freeDBTagger 0.8.1.0
#
DISCID=b30f160d
DTITLE=宇多田ヒカル_si - Distance
DYEAR=2001
DGENRE=rock
TTITLE0=Wait and See〜リスク〜
TTITLE1=Wait and See〜リスク〜
TTITLE2=Wait and See〜リスク〜
TTITLE3=Wait and See〜リスク〜
TTITLE4=Wait and See〜リスク〜
TTITLE5=Wait and See〜リスク〜
TTITLE6=Wait and See〜リスク〜
TTITLE7=Wait and See〜リスク〜
TTITLE8=Wait and See〜リスク〜
TTITLE9=Wait and See〜リスク〜
TTITLE10=Wait and See〜リスク〜
TTITLE11=Wait and See〜リスク〜
TTITLE12=Wait and See〜リスク〜
EXTD=YEAR: 2001
EXTT0=
EXTT1=
EXTT2=
EXTT3=
EXTT4=
EXTT5=
EXTT6=
EXTT7=
EXTT8=
EXTT9=
EXTT10=
EXTT11=
EXTT12=
PLAYORDER=
